# xmcd
#
# Track frame offsets:
# 150
# 16641
# 33151
# 47756
# 64393
# 79856
# 96512
# 111257
# 130705
# 144715
# 160244
# 179123
#
# Disc length: 2565 seconds
#
#
# Revision: 0
# Processed by: cddbd v1.5.1PL0 Copyright (c) Steve Scherf et al.
# Submitted via: FreeRIP 2.90 
#
DISCID=a50a030c
DTITLE=Bill Mullis - No Greater Love
DYEAR=2004
DGENRE=Gospel
TTITLE0=No Greater Love
TTITLE1=Take Me Back
TTITLE2=It Hurts Me More Than It Hurts You
TTITLE3=She's A Wonder
TTITLE4=Quit Singing Them Blues
TTITLE5=Spirit's Love
TTITLE6=Billy
TTITLE7=First Fruits
TTITLE8=Cry Out For Revival
TTITLE9=I Pray For You
TTITLE10=Sometimes It's Hard
TTITLE11=Long Gone
EXTD=
EXTT0=
EXTT1=
EXTT2=
EXTT3=
EXTT4=
EXTT5=
EXTT6=
EXTT7=
EXTT8=
EXTT9=
EXTT10=
EXTT11=
PLAYORDER=
